<svg width="24" height="24" viewBox="0 0 24 24" fill="none" xmlns="http://www.w3.org/2000/svg">
	<path fill-rule="evenodd" clip-rule="evenodd"
		d="M12 15C12.5523 15 13 14.5523 13 14V9.00001C13 8.44772 12.5523 8.00001 12 8.00001C11.4477 8.00001 11 8.44772 11 9.00001V14C11 14.5523 11.4477 15 12 15Z"
		fill="#FF6A55" />
	<path fill-rule="evenodd" clip-rule="evenodd"
		d="M19.6746 17.5049L12.8696 5.56395C12.486 4.89079 11.5156 4.89079 11.132 5.56395L4.32701 17.5049C3.94709 18.1716 4.42852 19 5.19583 19H18.8058C19.5731 19 20.0545 18.1716 19.6746 17.5049ZM14.6072 4.5737C13.4564 2.55421 10.5452 2.55421 9.39433 4.5737L2.58937 16.5147C1.44963 18.5146 2.89391 21 5.19583 21H18.8058C21.1077 21 22.552 18.5146 21.4122 16.5147L14.6072 4.5737Z"
		fill="#FF6A55" />
	<path
		d="M13 17C13 17.5523 12.5523 18 12 18C11.4477 18 11 17.5523 11 17C11 16.4477 11.4477 16 12 16C12.5523 16 13 16.4477 13 17Z"
		fill="#FF6A55" />
</svg>