<svg width="20" height="20" viewBox="0 0 20 20" fill="#EFEFEF" xmlns="http://www.w3.org/2000/svg">
	<path
		d="M5.58928 4.4107C5.26384 4.08527 4.7362 4.08527 4.41076 4.4107C4.08533 4.73614 4.08533 5.26378 4.41076 5.58921L8.82152 9.99997L4.41079 14.4107C4.08535 14.7361 4.08535 15.2638 4.41079 15.5892C4.73623 15.9147 5.26386 15.9147 5.5893 15.5892L10 11.1785L14.4108 15.5892C14.7362 15.9147 15.2638 15.9147 15.5893 15.5892C15.9147 15.2638 15.9147 14.7361 15.5893 14.4107L11.1785 9.99997L15.5893 5.58922C15.9147 5.26378 15.9147 4.73614 15.5893 4.4107C15.2639 4.08527 14.7362 4.08527 14.4108 4.4107L10 8.82146L5.58928 4.4107Z" />
</svg>